# xmcd
#
# Track frame offsets:
#	150
#	12583
#	26143
#	37382
#	46131
#	57328
#	68063
#	79376
#	89858
#	103063
#	115367
#	126464
#	143170
#	152614
#	161519
#	167779
#	181955
#	193549
#	204369
#	218735
#	231408
#	244547
#	258436
#	268877
#	283784
#	291714
#	302944
#	313071
#	323577
#	339746
#
# Disc length: 4697 seconds
#
# Revision: 0
# Processed by: cddbd v1.5.2PL0 Copyright (c) Steve Scherf et al.
# Submitted via: audiograbber 1.83.01
#
DISCID=db12571e
DTITLE=Various Artist - Grandmaster R'n'B 8
DYEAR=2009
DGENRE=R&B
TTITLE0=Sparks, Jordin and Chris Brown - No Air
TTITLE1=Ne-Yo vs Sean Paul - Miss Independent
TTITLE2=West, Kanye - Heartless
TTITLE3=Beyonce - If I Were A Boy
TTITLE4=M.I.A. - Paper Planes
TTITLE5=T.I. ft. Rihanna - Live Your Life
TTITLE6=50 Cent - Get Up
TTITLE7=Take A Bow/Umbrella - Rihanna
TTITLE8=T.I. - Whatever You Like [remix]
TTITLE9=Brown, Chris - With You
TTITLE10=Beyonce - Single Ladies (Put A Ring On It)
TTITLE11=Cruz, Taio - She's Like A Star
TTITLE12=Kardinal Offishall ft. Keri Hilson and Rihanna - Numba 1 (Tide Is High)
TTITLE13=Timbaland ft. Keri Hilson - Way I Are, The [funky remix]
TTITLE14=Gym Class Heroes - Cookie Jar
TTITLE15=Kardinal Offishall ft. Akon vs Michael Jackson - Dangerously Dangerous
TTITLE16=Estelle ft. Kanye West - American Boy
TTITLE17=Pussycat Dolls - When I Grow Up
TTITLE18=Hudson, Jennifer - Spotlight [slightly danced]
TTITLE19=Rihanna - Disturbia
TTITLE20=Lady GaGa ft. Kardinal Offishall - Just Dance
TTITLE21=West, Kanye - Love Lockdown
TTITLE22=Stryder, Tinchy ft. Taio Cruz - Take Me back
TTITLE23=Brown, Chris - Forever
TTITLE24=Flo Rida ft. T-Pain - Low
TTITLE25=Flo Rida ft. Keyshia - Right Round
TTITLE26=Ne-Yo - Closer
TTITLE27=Ne-Yo - Mad [remix]
TTITLE28=Akon - Right Now (Na Na Na)
TTITLE29=Spears, Britney - Womanizer
EXTD=DJ only mixed compilation
EXTT0=
EXTT1=
EXTT2=
EXTT3=
EXTT4=
EXTT5=
EXTT6=
EXTT7=
EXTT8=
EXTT9=
EXTT10=
EXTT11=
EXTT12=
EXTT13=
EXTT14=
EXTT15=
EXTT16=
EXTT17=
EXTT18=
EXTT19=
EXTT20=
EXTT21=
EXTT22=
EXTT23=
EXTT24=
EXTT25=
EXTT26=
EXTT27=
EXTT28=
EXTT29=
PLAYORDER=
